<?xml version="1.0" encoding="utf-8"?>
<!-- Generator: Adobe Illustrator 23.0.6, SVG Export Plug-In . SVG Version: 6.00 Build 0)  -->
<svg version="1.1" id="Layer_1" xmlns="http://www.w3.org/2000/svg" xmlns:xlink="http://www.w3.org/1999/xlink" x="0px" y="0px"
	 viewBox="0 0 640 97" style="enable-background:new 0 0 640 97;" xml:space="preserve">
<style type="text/css">
	.st0{fill-rule:evenodd;clip-rule:evenodd;}
	.st1{fill-rule:evenodd;clip-rule:evenodd;fill:#A0EF6E;}
	.st2{fill-rule:evenodd;clip-rule:evenodd;fill:#56BC2F;}
</style>
<title>enverus-logo__black</title>
<desc>Created with Sketch.</desc>
<g id="enverus-logo__black">
	<polygon id="Fill-1" class="st0" points="133.6,93.5 133.6,1.7 153.8,1.7 192.2,60.2 192.4,60.2 192.4,1.7 211.1,1.7 211.1,93.5 
		192.4,93.5 152.4,34.5 152.2,34.5 152.2,93.5 	"/>
	<polygon id="Fill-2" class="st0" points="254.2,93.8 222.6,1.7 243.1,1.7 264,67.3 264.3,67.3 285.9,1.7 304.9,1.7 273.3,93.8 	"/>
	<polygon id="Fill-3" class="st0" points="316.5,93.5 316.5,1.7 379,1.7 379,18.6 336.7,18.6 336.7,38.3 377.8,38.3 377.8,54.3 
		336.7,54.3 336.7,77.1 381.2,77.1 381.2,93.5 	"/>
	<path id="Fill-4" class="st0" d="M414.8,43.3h13.8c2.9,0,5.4-0.2,7.6-0.7c2.2-0.4,3.9-1.2,5.4-2.2c1.4-1,2.5-2.3,3.2-3.9
		c0.7-1.6,1.1-3.6,1.1-5.9c0-4.5-1.4-7.7-4.2-9.6c-2.8-1.9-7.1-2.8-13-2.8h-13.8V43.3z M395,93.5V1.7h34.5c5.7,0,10.7,0.5,15.2,1.6
		c4.5,1,8.2,2.7,11.4,5c3.1,2.3,5.5,5.2,7.1,8.8c1.6,3.6,2.5,7.9,2.5,13c0,3.6-0.4,6.9-1.3,9.7c-0.8,2.8-2.1,5.3-3.7,7.4
		c-1.6,2.1-3.6,4-6,5.4c-2.4,1.5-5.1,2.7-8.1,3.6l20.4,37.2h-21.3l-19.1-34.6h-11.7v34.6H395z"/>
	<path id="Fill-6" class="st0" d="M499,92.4c-4.7-1.7-8.5-4.2-11.5-7.3c-3-3.2-5.3-7-6.8-11.5c-1.5-4.5-2.2-9.6-2.2-15.2V1.7h20.2
		v56.2c0,3.3,0.3,6.3,1,8.8c0.6,2.6,1.7,4.8,3.1,6.5c1.4,1.8,3.2,3.1,5.3,4c2.2,0.9,4.8,1.4,7.8,1.4c5.9,0,10.2-1.8,12.9-5.3
		c2.6-3.6,4-8.7,4-15.4V1.7h19.9v56.6c0,5.7-0.7,10.7-2.2,15.3c-1.5,4.5-3.7,8.4-6.7,11.6c-3,3.2-6.9,5.6-11.5,7.3
		c-4.7,1.7-10.2,2.6-16.6,2.6C509.1,95,503.6,94.1,499,92.4z"/>
	<path id="Fill-8" class="st0" d="M602.4,95.2c-5,0-9.5-0.6-13.5-1.7c-4.1-1.1-7.7-2.7-10.9-4.7c-3.2-2-6-4.4-8.4-7.1
		c-2.4-2.8-4.5-5.8-6.2-9.1l15.3-9.1c1.3,2.5,2.8,4.7,4.5,6.7c1.8,1.9,3.7,3.6,5.8,4.9c2.1,1.3,4.4,2.3,6.8,3c2.4,0.7,5,1,7.6,1
		c2.3,0,4.5-0.2,6.4-0.6c2-0.4,3.6-1.1,5.1-2c1.4-0.9,2.5-2,3.3-3.3c0.8-1.3,1.2-2.9,1.2-4.6c0-1.7-0.4-3.2-1.2-4.5
		c-0.8-1.3-2-2.4-3.6-3.4c-1.6-1-3.5-1.9-5.8-2.8c-2.3-0.8-5-1.7-8-2.5c-2.7-0.8-5.5-1.5-8.2-2.3c-2.7-0.8-5.3-1.7-7.8-2.7
		c-2.5-1-4.8-2.2-6.9-3.5c-2.1-1.3-4-2.9-5.6-4.7c-1.6-1.8-2.8-4-3.7-6.4c-0.9-2.4-1.3-5.2-1.3-8.4c0-4.3,0.8-8.1,2.4-11.5
		c1.6-3.4,3.8-6.2,6.8-8.6c2.9-2.4,6.4-4.2,10.5-5.4C591,0.6,595.5,0,600.4,0c4.7,0,9,0.5,12.7,1.6c3.8,1,7.2,2.4,10.1,4.2
		c3,1.7,5.6,3.7,7.8,6c2.2,2.3,4.1,4.6,5.8,7.1l-14,10.7c-1.2-1.9-2.7-3.7-4.3-5.3c-1.7-1.6-3.5-3-5.4-4.1c-2-1.1-4-2-6.2-2.6
		c-2.2-0.6-4.4-0.9-6.6-0.9c-4.3,0-7.6,0.8-9.8,2.5c-2.3,1.7-3.4,3.9-3.4,6.7c0,1.8,0.4,3.4,1.2,4.7c0.8,1.3,2,2.5,3.7,3.5
		c1.6,1,3.6,1.9,5.9,2.7c2.3,0.8,5,1.6,8,2.5c2.7,0.7,5.3,1.5,8.1,2.3c2.7,0.8,5.3,1.7,7.8,2.8c2.5,1,4.8,2.3,6.9,3.6
		c2.1,1.4,4,3,5.5,4.8c1.6,1.9,2.8,4,3.7,6.4c0.9,2.4,1.3,5.2,1.3,8.4c0,3.7-0.7,7.2-2.1,10.6c-1.4,3.3-3.6,6.3-6.6,8.9
		c-3,2.6-6.8,4.6-11.4,6.1C614.3,94.5,608.8,95.2,602.4,95.2"/>
	<path id="Fill-11" class="st0" d="M115.5,54.6v-16H74.8V18.9h42.3V2H54.6v75.4h20.2V54.6H115.5z M74.8,93.8h44.6V77.4H74.8V93.8z"
		/>
	<polygon id="Fill-13" class="st1" points="24.2,93.8 54.7,93.8 54.7,77.4 24.2,77.4 	"/>
	<polygon id="Fill-15" class="st1" points="0,54.8 20.3,54.8 20.3,38.4 0,38.4 	"/>
	<polygon id="Fill-16" class="st2" points="34.2,54.8 115.5,54.8 115.5,38.4 34.2,38.4 	"/>
</g>
</svg>
